# xmcd
#
# Track frame offsets:
#	150
#	13190
#	24447
#	35285
#	48357
#	70950
#	86230
#	95545
#	108907
#	120562
#	134025
#	146210
#	158415
#	169730
#	184632
#	196047
#	211402
#	234625
#	245167
#	261960
#
# Disc length: 3663
#
# Revision: 1
# Processed by: cddbd v1.5.1PL0 Copyright (c) Steve Scherf et al.
# Submitted via: ExactAudioCopy v0.95a3
# Normalized: r0:TDELIM( - )
#
DISCID=1c0e4d14
DTITLE=Various Artist - Blues Gallery
DYEAR=1994
DGENRE=Blues
TTITLE0=Muddy Waters - Manish Boy
TTITLE1=John Lee Hooker - Boom Boom
TTITLE2=Howlin' Wolf - Wangf Dang Doodle
TTITLE3=Elmore James - Dust My Broom
TTITLE4=B.B. King - Every Day (I have the Blues)
TTITLE5=Sonny Boy Williamson - Cross My Heart
TTITLE6=Canned Heat - Big Road Blues
TTITLE7=John Mayall - A Big Man
TTITLE8=Little Walter - My Babe
TTITLE9=Lightnin' Hopkins - Mojo Hand
TTITLE10=John Lee Hooker - Drug Store Woman
TTITLE11=Memphis slim - Mother Earth
TTITLE12=Sonny Boy Williamson - Your Funeral, my trial
TTITLE13=Muddy Waters - Lodine in my coffee
TTITLE14=Big Joe Williams - Bye, bye baby blues
TTITLE15=Howlin' Wolf - Goin' down slow
TTITLE16=B.B. King - How blue you can get
TTITLE17=Elmore James - Done somebody wrong
TTITLE18=Johnny winter - Kind hearted woman
TTITLE19=Little walter - Everybody needs somebody
EXTD=
EXTT0=
EXTT1=
EXTT2=
EXTT3=
EXTT4=
EXTT5=
EXTT6=
EXTT7=
EXTT8=
EXTT9=
EXTT10=
EXTT11=
EXTT12=
EXTT13=
EXTT14=
EXTT15=
EXTT16=
EXTT17=
EXTT18=
EXTT19=
PLAYORDER=
